<?xml version="1.0" standalone="no"?><!DOCTYPE svg PUBLIC "-//W3C//DTD SVG 1.1//EN" "http://www.w3.org/Graphics/SVG/1.1/DTD/svg11.dtd"><svg t="1491907185210" class="icon" style="" viewBox="0 0 1024 1024" version="1.1" xmlns="http://www.w3.org/2000/svg" p-id="6667" xmlns:xlink="http://www.w3.org/1999/xlink" width="20" height="20"><defs><style type="text/css"></style></defs><path d="M840.54016 74.3168H184.61184c-68.46976 0-109.35808 40.76032-109.35808 109.23008V703.0272c0 68.46464 40.88832 108.0576 109.35808 108.0576h173.05088l127.94368 122.9056c-0.77312-0.768 19.56352 20.87424 38.784 5.3504 12.1088-12.1344 6.9632-31.744-5.1712-43.8528l-126.7968-121.87648c-5.82144-5.8112-13.70624-9.58976-21.92384-9.58976H184.61184c-34.23232 0-62.29504-26.76224-62.29504-60.99456V183.54688c0-34.23744 28.06272-63.19104 62.29504-63.19104h655.92832c34.23232 0 60.5184 28.9536 60.5184 63.19104V703.0272c0 34.23744-26.2912 60.99456-60.5184 60.99456h-254.55104c-17.14688 0-32.17408 4.82816-31.04256 26.09152 0.91648 17.1264 13.89568 20.97664 31.04256 20.97664h254.55104c68.46976 0 107.58144-39.59296 107.58144-108.0576V183.54688c0-68.46976-39.11168-109.23008-107.58144-109.23008z" p-id="6668" fill="#bfbfbf"></path><path d="M289.09056 552.45824c45.0304 61.12256 116.82304 86.99392 223.48288 86.99392 106.06592 0 177.98144-25.9072 223.84128-87.09632 47.49824-63.37536 48.65024-132.92544 42.76736-184.0896a55.67488 55.67488 0 0 0 15.37024-38.46656c0-30.85824-19.89632-45.63968-50.75456-45.63968s-50.75456 19.89632-50.75456 50.75968c0 23.58784 14.6176 33.5104 35.29728 41.70752 3.88096 40.6528-3.29216 104.64256-36.65408 148.96128-33.53088 44.544-93.78816 67.13344-179.10272 67.13344-85.68832 0-145.73056-22.42048-178.44736-66.63168-33.2288-44.89216-38.46144-109.952-33.52576-149.77536 20.25984-8.38656 34.51904-18.10432 34.51904-41.40032 0-30.85824-19.89632-50.75456-50.75968-50.75456s-50.75968 14.77632-50.75968 45.63456c0 15.32416 6.17472 29.19936 16.15872 39.296-6.85056 50.26304-7.49056 119.82848 39.3216 183.36768z" p-id="6669" fill="#bfbfbf"></path></svg>